{"title":"Dance.With.A.Vampire.2006.DVDRip.XViD-SPRiNTER","uid":6154279,"size":1478313887,"categoryP":"video","categoryS":"movies","magnet":"?xt=urn:btih:65fd65f0c257f3874e1171379613fc4dbbfdd1be&amp;dn=Dance.With.A.Vampire.2006.DVDRip.XViD-SPRiNTER&amp;tr=udp%3A%2F%2Ftracker.openbittorrent.com%3A80&amp;tr=udp%3A%2F%2Fopen.demonii.com%3A1337&amp;tr=udp%3A%2F%2Ftracker.coppersurfer.tk%3A6969&amp;tr=udp%3A%2F%2Fexodus.desync.com%3A6969","seeders":0,"leechers":0,"uploader":"TvTeam","files":6,"time":1296990433,"description":". \n  &lt;a href=&quot;\nhttp://www.torrentday.com/&quot; rel=&quot;nofollow&quot; target=&quot;_NEW&quot;&gt;\nhttp://www.torrentday.com/&lt;/a&gt;        :     The Hottest Private Tracker On The Net!!!\n &lt;a href=&quot;\nhttp://www.torrentday.com&quot; rel=&quot;nofollow&quot; target=&quot;_NEW&quot;&gt;\nhttp://www.torrentday.com&lt;/a&gt;          :     Once &amp; For all ;)\n\n\n               www . TorrentDay . Com \n\n(((((((((((((= Enjoy No RAR releases =))))))))))))))))))))\n\n\n...................................NFO:....................................\n\n.\n                                                     \n                                                   \n                                                         \n                                                          \n                                                           \n                                                          \n                                                          \n                                                          \n                                                           \n                                                         \n                                                          \n                                                        \n                                                      \n                                     \n                                                 \n                                                   \n                                             \n                                              \n                                                     \n                                                      \n                                                      \n                                                      \n                                                    \n                                                     \n                                                   \n                                                     \n                                                     \n                                                      \n                                                     \n                                                      \n                                                    \n                 ARTiCHOKE                        \n                                                \n                      \n                                                        \n                                                      \n                                                      \n                                               \n                                          \n                                                   \n                                            \n                                                    \n                                                       \n                                                        \n                                                      \n                                                \n                                                        \n                                                 \n                                              \n                                                  \n                                                \n                                                  \n                                        \n\n      \n                                \n      SPRiNTER proudly presents...     \n                                \n      \n \nDance.With.A.Vampire.2006.DVDRip.XViD-SPRiNTER &lt;a href=&quot;\nhttp://www.imdb.com/title/tt0799996/&quot; rel=&quot;nofollow&quot; target=&quot;_NEW&quot;&gt;\nhttp://www.imdb.com/title/tt0799996/&lt;/a&gt;\n\n\nDate: 2011.02\nGenre: Horror  \n\n\nPlot : Follow the story of Redwood Justin, who is determined to rescue his sister from the vampires that kidnapped her years ago. Bolt Upright has the skills and knowledge necessary to \n\t  fight the vampires, and takes Redwood on a whirlwind journey that takes them right into to vampires' den. \n\n\n  Stacey T. Gillespie  ...  Redwood Justin  \n  Matthew Perry  ...  Bolt Upright  \n  Amy Wills  ...  Glenda  \n  Billy W. Blackwell  ...  Mike Stone  \n  Frank Farhat  ...  Fisk  \n  Mari Stamper  ...  Barbara  \n  Marshall Fields  ...  Lamont   \n\n\n      \n                 \n      Release notes     \n                 \n      \n\n     Enjoy...\n\n\n      \n           \n     Greetings    \n           \n      \n\n\nNTX aAF FiCO HNR CiNEFiLE AEN HUMANiSM SSF\n\n\n      \n           \n      Details     \n           \n      \n\n\nFormat                           : AVI\nFormat/Info                      : Audio Video Interleave\nFile size                        : 1.36 GiB\nDuration                         : 1h 55mn\nOverall bit rate                 : 1 686 Kbps\nWriting application              : Nandub v1.0rc2\nWriting library                  : Nandub build 1852/release\n\nVideo\nID                               : 0\nFormat                           : MPEG-4 Visual\nFormat profile                   : AdvancedSimple@L5\nFormat settings, BVOP            : No\nFormat settings, QPel            : No\nFormat settings, GMC             : No warppoints\nFormat settings, Matrix          : Default (H.263)\nCodec ID                         : XVID\nCodec ID/Hint                    : XviD\nDuration                         : 1h 55mn\nBit rate                         : 1 532 Kbps\nWidth                            : 512 pixels\nHeight                           : 384 pixels\nDisplay aspect ratio             : 4:3\nFrame rate                       : 29.970 fps\nResolution                       : 24 bits\nColorimetry                      : 4:2:0\nScan type                        : Progressive\nBits/(Pixel*Frame)               : 0.260\nStream size                      : 1.24 GiB (91%)\nWriting library                  : XviD 1.2.1 (UTC 2008-12-04)\n\nAudio\nID                               : 1\nFormat                           : MPEG Audio\nFormat version                   : Version 1\nFormat profile                   : Layer 3\nCodec ID                         : 55\nCodec ID/Hint                    : MP3\nDuration                         : 1h 55mn\nBit rate mode                    : Variable\nBit rate                         : 139 Kbps\nChannel(s)                       : 2 channels\nSampling rate                    : 48.0 KHz\nResolution                       : 16 bits\nStream size                      : 115 MiB (8%)\nAlignment                        : Aligned on interleaves\nInterleave, duration             : 24 ms (0.72 video frame)\nInterleave, preload duration     : 209 ms\nWriting library                  : LAME3.89 (alpha)","torrent":{"xt":"urn:btih:65fd65f0c257f3874e1171379613fc4dbbfdd1be","amp;dn":"Dance.With.A.Vampire.2006.DVDRip.XViD-SPRiNTER","amp;tr":["udp%3A%2F%2Ftracker.openbittorrent.com%3A80","udp%3A%2F%2Fopen.demonii.com%3A1337","udp%3A%2F%2Ftracker.coppersurfer.tk%3A6969","udp%3A%2F%2Fexodus.desync.com%3A6969"],"infoHash":"65fd65f0c257f3874e1171379613fc4dbbfdd1be","infoHashBuffer":{"type":"Buffer","data":[101,253,101,240,194,87,243,135,78,17,113,55,150,19,252,77,187,253,209,190]},"announce":[],"urlList":[]}}